<svg xmlns="http://www.w3.org/2000/svg" xmlns:xlink="http://www.w3.org/1999/xlink" style="display:none"><symbol  id='facebook'>
    <path class="facebook" fill-rule="evenodd" fill="#FFF" d="M3.792 13.333V24.07h5.351V13.384h3.653l.883-4.455H9.181V5.661c0-.451.247-1.055.996-1.055h2.6V.069H7.921c-1.674 0-4.148 2.014-4.148 4.156v4.578H.966v4.51l2.826.02z"></path>
  </symbol><symbol  id='gadgets'>
    <path class="gadgets" fill-rule="evenodd" fill="#005494" d="M141.457 146.784V63.133h50.514v83.651h-50.514zm25.901-3.611c1.606 0 2.915-1.289 2.915-2.873 0-1.584-1.309-2.866-2.915-2.866-1.613 0-2.914 1.289-2.914 2.866 0 1.584 1.309 2.873 2.914 2.873zm.478-76.576c-.675 0-1.223.532-1.223 1.199 0 .661.548 1.206 1.223 1.206.674 0 1.219-.545 1.219-1.206 0-.664-.545-1.199-1.219-1.199zm7.265 4.011h-14.53v1.149h14.53v-1.149zm8.765 5.257l-34.304.008v57.515c6.504.054 21.185.008 34.304-.066V75.865zm-26.088-64.94H37.248v21.768h-10.62V.473H168.4v58.604h-10.622V10.925zM75.261 148.521H.049V37.442h75.212v111.079zm-36.019-5.569c2.003 0 3.632-1.611 3.627-3.576 0-1.965-1.624-3.565-3.627-3.565-2.002 0-3.623 1.6-3.623 3.565 0 1.965 1.621 3.576 3.623 3.576zM10.926 48.146v81.957h53.463l.004-81.957H10.926zm125.04 44.352H80.109V82.045h55.857v10.453zm-36.442 4.28h36.442v14.837H80.109v-5.727h37.441v-2.773H80.109v-6.337h19.415z"></path>
  </symbol><symbol  id='icoBe'>
    <path class="icoBe" fill-rule="evenodd" fill="#FFF" d="M10.154 7.529s2.267-.18 2.267-3.013c0-2.831-1.855-4.214-4.203-4.214H.489v15.829h7.729s4.717.158 4.717-4.671c.001 0 .206-3.931-2.781-3.931zM3.895 3.115h4.323s1.05 0 1.05 1.647-.618 1.886-1.32 1.886H3.895V3.115zm4.104 10.203H3.895V9.087h4.323s1.566-.022 1.566 2.173c0 1.853-1.17 2.045-1.785 2.058zm11.23-8.988c-5.713 0-5.708 6.08-5.708 6.08s-.392 6.05 5.708 6.05c0 0 5.082.311 5.082-4.21h-2.613s.086 1.703-2.382 1.703c0 0-2.615.186-2.615-2.752h7.697c.002.001.844-6.871-5.169-6.871zm2.324 4.759h-4.879s.32-2.441 2.614-2.441c2.292 0 2.265 2.441 2.265 2.441zm.61-7.855h-6.13v1.949h6.128V1.234h.002z"></path>
  </symbol><symbol  id='link'>
    <path class="link" fill-rule="evenodd" opacity=".902" fill="#FFF" d="M41.244 1.731a2.581 2.581 0 0 0-3.64 0l-5.217 5.222a12.706 12.706 0 0 0-7.054-2.128c-3.281 0-6.667 1.253-9.062 3.757l-7.69 7.691C4.194 20.655 3.654 27.43 6.949 32.402l-5.217 5.223a2.565 2.565 0 0 0 1.811 4.377c.657 0 1.311-.251 1.813-.752l5.216-5.223a12.75 12.75 0 0 0 7.07 2.129c3.173 0 6.559-1.252 9.062-3.756l7.676-7.691c4.386-4.382 4.926-11.158 1.631-16.131l5.232-5.222a2.562 2.562 0 0 0 .001-3.625zm-8.236 15.914a7.646 7.646 0 0 1-2.253 5.438l-7.676 7.691a7.835 7.835 0 0 1-5.437 2.254c-1.161 0-2.272-.285-3.293-.771l3.716-3.826a2.564 2.564 0 0 0 0-3.626c-.893-1.001-2.516-1.001-3.517 0l-3.824 3.827a7.542 7.542 0 0 1-.772-3.296c0-2.053.801-3.985 2.253-5.438l7.583-7.691c1.452-1.453 3.492-2.254 5.545-2.254 1.161 0 2.267.286 3.289.772l-3.9 3.906a2.561 2.561 0 0 0 0 3.625c.5.502 1.155.752 1.812.752a2.55 2.55 0 0 0 1.808-.752l3.895-3.905a7.554 7.554 0 0 1 .771 3.294z"></path>
  </symbol><symbol  id='linkin'>
    <path class="linkin" fill-rule="evenodd" fill="#FFF" d="M5.427 3.111c0 1.436-1.047 2.6-2.768 2.6-1.62 0-2.667-1.164-2.667-2.6 0-1.47 1.082-2.6 2.735-2.6 1.653 0 2.666 1.13 2.7 2.6zM.128 24.49V7.764h5.131V24.49H.128zm8.201-11.391c0-2.086-.067-3.83-.136-5.335h4.456l.238 2.327h.101c.675-1.096 2.329-2.703 5.097-2.703 3.375 0 5.907 2.292 5.907 7.217v9.886h-5.131v-9.269c0-2.155-.744-3.627-2.6-3.627-1.417 0-2.26.992-2.632 1.95-.135.342-.169.82-.169 1.3v9.646H8.329V13.099z"></path>
  </symbol><symbol  id='okSign'>
    <path class="okSign" fill-rule="evenodd" fill="rgb(255, 255, 255)"
          d="M45.996,92.003 C20.633,92.003 -0.004,71.366 -0.004,46.003 C-0.004,20.638 20.633,0.003 45.996,0.003 C71.361,0.003 91.996,20.638 91.996,46.003 C91.996,71.366 71.361,92.003 45.996,92.003 ZM45.996,3.123 C22.353,3.123 3.115,22.360 3.115,46.003 C3.115,69.648 22.353,88.884 45.996,88.884 C69.641,88.884 88.876,69.648 88.876,46.003 C88.876,22.360 69.641,3.123 45.996,3.123 ZM47.763,56.564 C47.153,57.176 46.165,57.176 45.555,56.564 L30.304,41.332 C29.998,41.025 29.845,40.627 29.845,40.227 C29.845,39.827 29.998,39.429 30.302,39.124 C30.910,38.515 31.901,38.515 32.510,39.124 L46.658,53.258 L60.806,39.124 C61.415,38.517 62.406,38.517 63.014,39.124 C63.623,39.734 63.623,40.723 63.014,41.332 L47.763,56.564 Z"></path>
  </symbol><symbol  id='tablet'>
    <path class="tablet" fill-rule="evenodd" d="M65.36.003H9.635C4.308.003.003 4.312.003 9.616v112.771c0 5.3 4.305 9.609 9.632 9.609h55.72c5.327 0 9.642-4.309 9.642-9.609V9.616c.005-5.304-4.31-9.613-9.637-9.613zM23.745 5.844H51.26c.695 0 1.255 1.033 1.255 2.32 0 1.279-.56 2.319-1.255 2.319H23.745c-.695 0-1.25-1.04-1.25-2.319 0-1.287.555-2.32 1.25-2.32zm13.757 116.663c-3.397 0-6.157-2.746-6.157-6.137 0-3.39 2.765-6.127 6.157-6.127 3.388 0 6.153 2.746 6.153 6.127 0 3.391-2.77 6.137-6.153 6.137zm30.276-21.022H7.227v-85.26h60.551v85.26z"></path>
  </symbol><symbol  id='twitter'>
    <path class="twitter" fill-rule="evenodd" fill="#FFF" d="M24.492 2.628a9.863 9.863 0 0 1-2.828.775A4.933 4.933 0 0 0 23.829.68a9.862 9.862 0 0 1-3.127 1.194 4.924 4.924 0 0 0-8.39 4.49A13.978 13.978 0 0 1 2.163 1.22a4.922 4.922 0 0 0 1.524 6.573 4.9 4.9 0 0 1-2.23-.616l-.001.062a4.926 4.926 0 0 0 3.95 4.827 4.909 4.909 0 0 1-2.224.084 4.93 4.93 0 0 0 4.6 3.419 9.882 9.882 0 0 1-7.29 2.038 13.937 13.937 0 0 0 7.548 2.212c9.057 0 14.009-7.501 14.009-14.006 0-.214-.004-.426-.014-.637a9.988 9.988 0 0 0 2.457-2.548z"></path>
  </symbol><symbol  id='vimeo'>
    <path class="vimeo" fill-rule="evenodd" fill="#FFF" d="M.696 6.469l.985 1.294s2.031-1.604 2.708-.802 3.262 10.488 4.125 12.274c.753 1.567 2.83 3.639 5.109 2.16 2.276-1.48 9.848-7.957 11.203-15.606 1.354-7.646-9.111-6.044-10.22.617 2.771-1.666 4.25.677 2.832 3.331-1.415 2.651-2.708 4.381-3.385 4.381-.676 0-1.196-1.774-1.971-4.875-.8-3.207-.795-8.981-4.123-8.327C4.821 1.534.696 6.469.696 6.469z"></path>
  </symbol>
<symbol  id='ok2'>
<path class="ok2" fill-rule="evenodd"  fill="rgb(0, 84, 148)"
        d="M58.000,-0.001 C25.968,-0.001 -0.001,25.967 -0.001,57.999 C-0.001,90.034 25.968,116.000 58.000,116.000 C90.032,116.000 116.000,90.034 116.000,57.999 C116.000,25.967 90.032,-0.001 58.000,-0.001 ZM51.153,74.659 L50.750,74.259 L50.347,74.662 L34.088,58.402 L36.651,55.839 L50.750,69.936 L79.346,41.339 L81.910,43.902 L51.153,74.659 Z"></path>
</symbol></svg>