<!-- Generated by IcoMoon.io -->
<svg version="1.1" xmlns="http://www.w3.org/2000/svg" width="32" height="32" viewBox="0 0 32 32">
<title>brand</title>
<path fill="#563d7c" d="M26.666 0h-21.332c-2.942 0.009-5.325 2.392-5.334 5.333v21.333c0 2.934 2.4 5.334 5.334 5.334h21.332c2.934 0 5.334-2.4 5.334-5.334v-21.332c0-2.934-2.4-5.334-5.334-5.334zM23.75 22.474c-0.277 0.66-0.696 1.213-1.222 1.64-0.568 0.466-1.278 0.832-2.152 1.106-0.872 0.27-1.908 0.406-3.11 0.406h-8.576v-18.672h9.070c1.676 0 3.020 0.38 4.028 1.15 1.010 0.77 1.516 1.924 1.516 3.48 0 0.94-0.23 1.744-0.69 2.414-0.46 0.66-1.12 1.18-1.976 1.54v0.060c1.14 0.24 2.020 0.78 2.6 1.62s0.88 1.9 0.88 3.18c0 0.72-0.14 1.4-0.4 2.040zM20.050 17.874c-0.546-0.5-1.316-0.744-2.308-0.744h-5.762v5.824h5.78c0.99 0 1.764-0.256 2.308-0.774 0.55-0.512 0.826-1.244 0.826-2.186-0.004-0.92-0.28-1.63-0.826-2.12zM19.25 14.108c0.526-0.446 0.786-1.088 0.786-1.924 0-0.94-0.234-1.606-0.706-1.988-0.47-0.38-1.15-0.576-2.040-0.576h-5.33v5.152h5.332c0.784 0 1.44-0.226 1.96-0.664z"></path>
</svg>
